<mxfile host="app.diagrams.net" modified="2024-05-23T14:08:36.628Z" agent="Mozilla/5.0 (Macintosh; Intel Mac OS X 10_15_7) AppleWebKit/537.36 (KHTML, like Gecko) Chrome/123.0.0.0 Safari/537.36" etag="e5WrRGWspqVv02v_izb6" version="24.3.1" type="device">
  <diagram name="Page-1" id="2ca16b54-16f6-2749-3443-fa8db7711227">
    <mxGraphModel dx="2693" dy="2175" grid="1" gridSize="10" guides="1" tooltips="1" connect="1" arrows="1" fold="1" page="1" pageScale="1" pageWidth="1100" pageHeight="850" background="none" math="0" shadow="0">
      <root>
        <mxCell id="0" />
        <mxCell id="1" parent="0" />
        <mxCell id="YA9r-kYB9n0EnsaO0a9V-29" value="" style="shape=tableRow;horizontal=0;startSize=0;swimlaneHead=0;swimlaneBody=0;fillColor=none;collapsible=0;dropTarget=0;points=[[0,0.5],[1,0.5]];portConstraint=eastwest;top=0;left=0;right=0;bottom=0;labelBackgroundColor=none;" vertex="1" parent="1">
          <mxGeometry x="-900" y="-160" width="180" height="30" as="geometry" />
        </mxCell>
        <mxCell id="YA9r-kYB9n0EnsaO0a9V-2" value="student" style="shape=table;startSize=30;container=1;collapsible=1;childLayout=tableLayout;fixedRows=1;rowLines=0;fontStyle=1;align=center;resizeLast=1;html=1;labelBackgroundColor=none;flipV=0;flipH=0;" vertex="1" parent="1">
          <mxGeometry x="-940" y="-250" width="180" height="180" as="geometry" />
        </mxCell>
        <mxCell id="YA9r-kYB9n0EnsaO0a9V-3" value="" style="shape=tableRow;horizontal=0;startSize=0;swimlaneHead=0;swimlaneBody=0;fillColor=none;collapsible=0;dropTarget=0;points=[[0,0.5],[1,0.5]];portConstraint=eastwest;top=0;left=0;right=0;bottom=1;labelBackgroundColor=none;" vertex="1" parent="YA9r-kYB9n0EnsaO0a9V-2">
          <mxGeometry y="30" width="180" height="30" as="geometry" />
        </mxCell>
        <mxCell id="YA9r-kYB9n0EnsaO0a9V-4" value="PK" style="shape=partialRectangle;connectable=0;fillColor=none;top=0;left=0;bottom=0;right=0;fontStyle=1;overflow=hidden;whiteSpace=wrap;html=1;labelBackgroundColor=none;" vertex="1" parent="YA9r-kYB9n0EnsaO0a9V-3">
          <mxGeometry width="30" height="30" as="geometry">
            <mxRectangle width="30" height="30" as="alternateBounds" />
          </mxGeometry>
        </mxCell>
        <mxCell id="YA9r-kYB9n0EnsaO0a9V-5" value="ID" style="shape=partialRectangle;connectable=0;fillColor=none;top=0;left=0;bottom=0;right=0;align=left;spacingLeft=6;fontStyle=5;overflow=hidden;whiteSpace=wrap;html=1;labelBackgroundColor=none;" vertex="1" parent="YA9r-kYB9n0EnsaO0a9V-3">
          <mxGeometry x="30" width="150" height="30" as="geometry">
            <mxRectangle width="150" height="30" as="alternateBounds" />
          </mxGeometry>
        </mxCell>
        <mxCell id="YA9r-kYB9n0EnsaO0a9V-6" value="" style="shape=tableRow;horizontal=0;startSize=0;swimlaneHead=0;swimlaneBody=0;fillColor=none;collapsible=0;dropTarget=0;points=[[0,0.5],[1,0.5]];portConstraint=eastwest;top=0;left=0;right=0;bottom=0;labelBackgroundColor=none;" vertex="1" parent="YA9r-kYB9n0EnsaO0a9V-2">
          <mxGeometry y="60" width="180" height="30" as="geometry" />
        </mxCell>
        <mxCell id="YA9r-kYB9n0EnsaO0a9V-7" value="" style="shape=partialRectangle;connectable=0;fillColor=none;top=0;left=0;bottom=0;right=0;editable=1;overflow=hidden;whiteSpace=wrap;html=1;labelBackgroundColor=none;" vertex="1" parent="YA9r-kYB9n0EnsaO0a9V-6">
          <mxGeometry width="30" height="30" as="geometry">
            <mxRectangle width="30" height="30" as="alternateBounds" />
          </mxGeometry>
        </mxCell>
        <mxCell id="YA9r-kYB9n0EnsaO0a9V-8" value="name" style="shape=partialRectangle;connectable=0;fillColor=none;top=0;left=0;bottom=0;right=0;align=left;spacingLeft=6;overflow=hidden;whiteSpace=wrap;html=1;labelBackgroundColor=none;" vertex="1" parent="YA9r-kYB9n0EnsaO0a9V-6">
          <mxGeometry x="30" width="150" height="30" as="geometry">
            <mxRectangle width="150" height="30" as="alternateBounds" />
          </mxGeometry>
        </mxCell>
        <mxCell id="YA9r-kYB9n0EnsaO0a9V-9" value="" style="shape=tableRow;horizontal=0;startSize=0;swimlaneHead=0;swimlaneBody=0;fillColor=none;collapsible=0;dropTarget=0;points=[[0,0.5],[1,0.5]];portConstraint=eastwest;top=0;left=0;right=0;bottom=0;labelBackgroundColor=none;" vertex="1" parent="YA9r-kYB9n0EnsaO0a9V-2">
          <mxGeometry y="90" width="180" height="30" as="geometry" />
        </mxCell>
        <mxCell id="YA9r-kYB9n0EnsaO0a9V-10" value="" style="shape=partialRectangle;connectable=0;fillColor=none;top=0;left=0;bottom=0;right=0;editable=1;overflow=hidden;whiteSpace=wrap;html=1;labelBackgroundColor=none;" vertex="1" parent="YA9r-kYB9n0EnsaO0a9V-9">
          <mxGeometry width="30" height="30" as="geometry">
            <mxRectangle width="30" height="30" as="alternateBounds" />
          </mxGeometry>
        </mxCell>
        <mxCell id="YA9r-kYB9n0EnsaO0a9V-11" value="slack_id" style="shape=partialRectangle;connectable=0;fillColor=none;top=0;left=0;bottom=0;right=0;align=left;spacingLeft=6;overflow=hidden;whiteSpace=wrap;html=1;labelBackgroundColor=none;" vertex="1" parent="YA9r-kYB9n0EnsaO0a9V-9">
          <mxGeometry x="30" width="150" height="30" as="geometry">
            <mxRectangle width="150" height="30" as="alternateBounds" />
          </mxGeometry>
        </mxCell>
        <mxCell id="YA9r-kYB9n0EnsaO0a9V-12" value="" style="shape=tableRow;horizontal=0;startSize=0;swimlaneHead=0;swimlaneBody=0;fillColor=none;collapsible=0;dropTarget=0;points=[[0,0.5],[1,0.5]];portConstraint=eastwest;top=0;left=0;right=0;bottom=0;labelBackgroundColor=none;" vertex="1" parent="YA9r-kYB9n0EnsaO0a9V-2">
          <mxGeometry y="120" width="180" height="30" as="geometry" />
        </mxCell>
        <mxCell id="YA9r-kYB9n0EnsaO0a9V-13" value="" style="shape=partialRectangle;connectable=0;fillColor=none;top=0;left=0;bottom=0;right=0;editable=1;overflow=hidden;whiteSpace=wrap;html=1;labelBackgroundColor=none;" vertex="1" parent="YA9r-kYB9n0EnsaO0a9V-12">
          <mxGeometry width="30" height="30" as="geometry">
            <mxRectangle width="30" height="30" as="alternateBounds" />
          </mxGeometry>
        </mxCell>
        <mxCell id="YA9r-kYB9n0EnsaO0a9V-14" value="track" style="shape=partialRectangle;connectable=0;fillColor=none;top=0;left=0;bottom=0;right=0;align=left;spacingLeft=6;overflow=hidden;whiteSpace=wrap;html=1;labelBackgroundColor=none;" vertex="1" parent="YA9r-kYB9n0EnsaO0a9V-12">
          <mxGeometry x="30" width="150" height="30" as="geometry">
            <mxRectangle width="150" height="30" as="alternateBounds" />
          </mxGeometry>
        </mxCell>
        <mxCell id="YA9r-kYB9n0EnsaO0a9V-107" value="" style="shape=tableRow;horizontal=0;startSize=0;swimlaneHead=0;swimlaneBody=0;fillColor=none;collapsible=0;dropTarget=0;points=[[0,0.5],[1,0.5]];portConstraint=eastwest;top=0;left=0;right=0;bottom=0;" vertex="1" parent="YA9r-kYB9n0EnsaO0a9V-2">
          <mxGeometry y="150" width="180" height="30" as="geometry" />
        </mxCell>
        <mxCell id="YA9r-kYB9n0EnsaO0a9V-108" value="" style="shape=partialRectangle;connectable=0;fillColor=none;top=0;left=0;bottom=0;right=0;editable=1;overflow=hidden;" vertex="1" parent="YA9r-kYB9n0EnsaO0a9V-107">
          <mxGeometry width="30" height="30" as="geometry">
            <mxRectangle width="30" height="30" as="alternateBounds" />
          </mxGeometry>
        </mxCell>
        <mxCell id="YA9r-kYB9n0EnsaO0a9V-109" value="email" style="shape=partialRectangle;connectable=0;fillColor=none;top=0;left=0;bottom=0;right=0;align=left;spacingLeft=6;overflow=hidden;" vertex="1" parent="YA9r-kYB9n0EnsaO0a9V-107">
          <mxGeometry x="30" width="150" height="30" as="geometry">
            <mxRectangle width="150" height="30" as="alternateBounds" />
          </mxGeometry>
        </mxCell>
        <mxCell id="YA9r-kYB9n0EnsaO0a9V-110" value="Instance_info" style="shape=table;startSize=30;container=1;collapsible=1;childLayout=tableLayout;fixedRows=1;rowLines=0;fontStyle=1;align=center;resizeLast=1;html=1;" vertex="1" parent="1">
          <mxGeometry x="-344" y="-220" width="180" height="120" as="geometry" />
        </mxCell>
        <mxCell id="YA9r-kYB9n0EnsaO0a9V-111" value="" style="shape=tableRow;horizontal=0;startSize=0;swimlaneHead=0;swimlaneBody=0;fillColor=none;collapsible=0;dropTarget=0;points=[[0,0.5],[1,0.5]];portConstraint=eastwest;top=0;left=0;right=0;bottom=1;" vertex="1" parent="YA9r-kYB9n0EnsaO0a9V-110">
          <mxGeometry y="30" width="180" height="30" as="geometry" />
        </mxCell>
        <mxCell id="YA9r-kYB9n0EnsaO0a9V-112" value="PK" style="shape=partialRectangle;connectable=0;fillColor=none;top=0;left=0;bottom=0;right=0;fontStyle=1;overflow=hidden;whiteSpace=wrap;html=1;" vertex="1" parent="YA9r-kYB9n0EnsaO0a9V-111">
          <mxGeometry width="30" height="30" as="geometry">
            <mxRectangle width="30" height="30" as="alternateBounds" />
          </mxGeometry>
        </mxCell>
        <mxCell id="YA9r-kYB9n0EnsaO0a9V-113" value="ID" style="shape=partialRectangle;connectable=0;fillColor=none;top=0;left=0;bottom=0;right=0;align=left;spacingLeft=6;fontStyle=5;overflow=hidden;whiteSpace=wrap;html=1;" vertex="1" parent="YA9r-kYB9n0EnsaO0a9V-111">
          <mxGeometry x="30" width="150" height="30" as="geometry">
            <mxRectangle width="150" height="30" as="alternateBounds" />
          </mxGeometry>
        </mxCell>
        <mxCell id="YA9r-kYB9n0EnsaO0a9V-114" value="" style="shape=tableRow;horizontal=0;startSize=0;swimlaneHead=0;swimlaneBody=0;fillColor=none;collapsible=0;dropTarget=0;points=[[0,0.5],[1,0.5]];portConstraint=eastwest;top=0;left=0;right=0;bottom=0;" vertex="1" parent="YA9r-kYB9n0EnsaO0a9V-110">
          <mxGeometry y="60" width="180" height="30" as="geometry" />
        </mxCell>
        <mxCell id="YA9r-kYB9n0EnsaO0a9V-115" value="" style="shape=partialRectangle;connectable=0;fillColor=none;top=0;left=0;bottom=0;right=0;editable=1;overflow=hidden;whiteSpace=wrap;html=1;" vertex="1" parent="YA9r-kYB9n0EnsaO0a9V-114">
          <mxGeometry width="30" height="30" as="geometry">
            <mxRectangle width="30" height="30" as="alternateBounds" />
          </mxGeometry>
        </mxCell>
        <mxCell id="YA9r-kYB9n0EnsaO0a9V-116" value="instance_id" style="shape=partialRectangle;connectable=0;fillColor=none;top=0;left=0;bottom=0;right=0;align=left;spacingLeft=6;overflow=hidden;whiteSpace=wrap;html=1;" vertex="1" parent="YA9r-kYB9n0EnsaO0a9V-114">
          <mxGeometry x="30" width="150" height="30" as="geometry">
            <mxRectangle width="150" height="30" as="alternateBounds" />
          </mxGeometry>
        </mxCell>
        <mxCell id="YA9r-kYB9n0EnsaO0a9V-123" value="" style="shape=tableRow;horizontal=0;startSize=0;swimlaneHead=0;swimlaneBody=0;fillColor=none;collapsible=0;dropTarget=0;points=[[0,0.5],[1,0.5]];portConstraint=eastwest;top=0;left=0;right=0;bottom=0;" vertex="1" parent="YA9r-kYB9n0EnsaO0a9V-110">
          <mxGeometry y="90" width="180" height="30" as="geometry" />
        </mxCell>
        <mxCell id="YA9r-kYB9n0EnsaO0a9V-124" value="" style="shape=partialRectangle;connectable=0;fillColor=none;top=0;left=0;bottom=0;right=0;editable=1;overflow=hidden;" vertex="1" parent="YA9r-kYB9n0EnsaO0a9V-123">
          <mxGeometry width="30" height="30" as="geometry">
            <mxRectangle width="30" height="30" as="alternateBounds" />
          </mxGeometry>
        </mxCell>
        <mxCell id="YA9r-kYB9n0EnsaO0a9V-125" value="instance_status" style="shape=partialRectangle;connectable=0;fillColor=none;top=0;left=0;bottom=0;right=0;align=left;spacingLeft=6;overflow=hidden;" vertex="1" parent="YA9r-kYB9n0EnsaO0a9V-123">
          <mxGeometry x="30" width="150" height="30" as="geometry">
            <mxRectangle width="150" height="30" as="alternateBounds" />
          </mxGeometry>
        </mxCell>
        <mxCell id="YA9r-kYB9n0EnsaO0a9V-126" value="slack_instance_request_log" style="shape=table;startSize=30;container=1;collapsible=1;childLayout=tableLayout;fixedRows=1;rowLines=0;fontStyle=1;align=center;resizeLast=1;html=1;" vertex="1" parent="1">
          <mxGeometry x="-660" y="-250" width="179" height="180" as="geometry" />
        </mxCell>
        <mxCell id="YA9r-kYB9n0EnsaO0a9V-127" value="" style="shape=tableRow;horizontal=0;startSize=0;swimlaneHead=0;swimlaneBody=0;fillColor=none;collapsible=0;dropTarget=0;points=[[0,0.5],[1,0.5]];portConstraint=eastwest;top=0;left=0;right=0;bottom=1;" vertex="1" parent="YA9r-kYB9n0EnsaO0a9V-126">
          <mxGeometry y="30" width="179" height="30" as="geometry" />
        </mxCell>
        <mxCell id="YA9r-kYB9n0EnsaO0a9V-128" value="PK" style="shape=partialRectangle;connectable=0;fillColor=none;top=0;left=0;bottom=0;right=0;fontStyle=1;overflow=hidden;whiteSpace=wrap;html=1;" vertex="1" parent="YA9r-kYB9n0EnsaO0a9V-127">
          <mxGeometry width="30" height="30" as="geometry">
            <mxRectangle width="30" height="30" as="alternateBounds" />
          </mxGeometry>
        </mxCell>
        <mxCell id="YA9r-kYB9n0EnsaO0a9V-129" value="ID" style="shape=partialRectangle;connectable=0;fillColor=none;top=0;left=0;bottom=0;right=0;align=left;spacingLeft=6;fontStyle=5;overflow=hidden;whiteSpace=wrap;html=1;" vertex="1" parent="YA9r-kYB9n0EnsaO0a9V-127">
          <mxGeometry x="30" width="149" height="30" as="geometry">
            <mxRectangle width="149" height="30" as="alternateBounds" />
          </mxGeometry>
        </mxCell>
        <mxCell id="YA9r-kYB9n0EnsaO0a9V-130" value="" style="shape=tableRow;horizontal=0;startSize=0;swimlaneHead=0;swimlaneBody=0;fillColor=none;collapsible=0;dropTarget=0;points=[[0,0.5],[1,0.5]];portConstraint=eastwest;top=0;left=0;right=0;bottom=0;" vertex="1" parent="YA9r-kYB9n0EnsaO0a9V-126">
          <mxGeometry y="60" width="179" height="30" as="geometry" />
        </mxCell>
        <mxCell id="YA9r-kYB9n0EnsaO0a9V-131" value="FK" style="shape=partialRectangle;connectable=0;fillColor=none;top=0;left=0;bottom=0;right=0;editable=1;overflow=hidden;whiteSpace=wrap;html=1;" vertex="1" parent="YA9r-kYB9n0EnsaO0a9V-130">
          <mxGeometry width="30" height="30" as="geometry">
            <mxRectangle width="30" height="30" as="alternateBounds" />
          </mxGeometry>
        </mxCell>
        <mxCell id="YA9r-kYB9n0EnsaO0a9V-132" value="student_id" style="shape=partialRectangle;connectable=0;fillColor=none;top=0;left=0;bottom=0;right=0;align=left;spacingLeft=6;overflow=hidden;whiteSpace=wrap;html=1;" vertex="1" parent="YA9r-kYB9n0EnsaO0a9V-130">
          <mxGeometry x="30" width="149" height="30" as="geometry">
            <mxRectangle width="149" height="30" as="alternateBounds" />
          </mxGeometry>
        </mxCell>
        <mxCell id="YA9r-kYB9n0EnsaO0a9V-133" value="" style="shape=tableRow;horizontal=0;startSize=0;swimlaneHead=0;swimlaneBody=0;fillColor=none;collapsible=0;dropTarget=0;points=[[0,0.5],[1,0.5]];portConstraint=eastwest;top=0;left=0;right=0;bottom=0;" vertex="1" parent="YA9r-kYB9n0EnsaO0a9V-126">
          <mxGeometry y="90" width="179" height="30" as="geometry" />
        </mxCell>
        <mxCell id="YA9r-kYB9n0EnsaO0a9V-134" value="FK" style="shape=partialRectangle;connectable=0;fillColor=none;top=0;left=0;bottom=0;right=0;editable=1;overflow=hidden;whiteSpace=wrap;html=1;" vertex="1" parent="YA9r-kYB9n0EnsaO0a9V-133">
          <mxGeometry width="30" height="30" as="geometry">
            <mxRectangle width="30" height="30" as="alternateBounds" />
          </mxGeometry>
        </mxCell>
        <mxCell id="YA9r-kYB9n0EnsaO0a9V-135" value="instance_info_id" style="shape=partialRectangle;connectable=0;fillColor=none;top=0;left=0;bottom=0;right=0;align=left;spacingLeft=6;overflow=hidden;whiteSpace=wrap;html=1;" vertex="1" parent="YA9r-kYB9n0EnsaO0a9V-133">
          <mxGeometry x="30" width="149" height="30" as="geometry">
            <mxRectangle width="149" height="30" as="alternateBounds" />
          </mxGeometry>
        </mxCell>
        <mxCell id="YA9r-kYB9n0EnsaO0a9V-139" value="" style="shape=tableRow;horizontal=0;startSize=0;swimlaneHead=0;swimlaneBody=0;fillColor=none;collapsible=0;dropTarget=0;points=[[0,0.5],[1,0.5]];portConstraint=eastwest;top=0;left=0;right=0;bottom=0;" vertex="1" parent="YA9r-kYB9n0EnsaO0a9V-126">
          <mxGeometry y="120" width="179" height="30" as="geometry" />
        </mxCell>
        <mxCell id="YA9r-kYB9n0EnsaO0a9V-140" value="" style="shape=partialRectangle;connectable=0;fillColor=none;top=0;left=0;bottom=0;right=0;editable=1;overflow=hidden;" vertex="1" parent="YA9r-kYB9n0EnsaO0a9V-139">
          <mxGeometry width="30" height="30" as="geometry">
            <mxRectangle width="30" height="30" as="alternateBounds" />
          </mxGeometry>
        </mxCell>
        <mxCell id="YA9r-kYB9n0EnsaO0a9V-141" value="request_type" style="shape=partialRectangle;connectable=0;fillColor=none;top=0;left=0;bottom=0;right=0;align=left;spacingLeft=6;overflow=hidden;" vertex="1" parent="YA9r-kYB9n0EnsaO0a9V-139">
          <mxGeometry x="30" width="149" height="30" as="geometry">
            <mxRectangle width="149" height="30" as="alternateBounds" />
          </mxGeometry>
        </mxCell>
        <mxCell id="YA9r-kYB9n0EnsaO0a9V-136" value="" style="shape=tableRow;horizontal=0;startSize=0;swimlaneHead=0;swimlaneBody=0;fillColor=none;collapsible=0;dropTarget=0;points=[[0,0.5],[1,0.5]];portConstraint=eastwest;top=0;left=0;right=0;bottom=0;" vertex="1" parent="YA9r-kYB9n0EnsaO0a9V-126">
          <mxGeometry y="150" width="179" height="30" as="geometry" />
        </mxCell>
        <mxCell id="YA9r-kYB9n0EnsaO0a9V-137" value="" style="shape=partialRectangle;connectable=0;fillColor=none;top=0;left=0;bottom=0;right=0;editable=1;overflow=hidden;whiteSpace=wrap;html=1;" vertex="1" parent="YA9r-kYB9n0EnsaO0a9V-136">
          <mxGeometry width="30" height="30" as="geometry">
            <mxRectangle width="30" height="30" as="alternateBounds" />
          </mxGeometry>
        </mxCell>
        <mxCell id="YA9r-kYB9n0EnsaO0a9V-138" value="request_time" style="shape=partialRectangle;connectable=0;fillColor=none;top=0;left=0;bottom=0;right=0;align=left;spacingLeft=6;overflow=hidden;whiteSpace=wrap;html=1;" vertex="1" parent="YA9r-kYB9n0EnsaO0a9V-136">
          <mxGeometry x="30" width="149" height="30" as="geometry">
            <mxRectangle width="149" height="30" as="alternateBounds" />
          </mxGeometry>
        </mxCell>
        <mxCell id="YA9r-kYB9n0EnsaO0a9V-331" value="Table Schema&amp;nbsp;" style="text;strokeColor=none;fillColor=none;html=1;fontSize=24;fontStyle=1;verticalAlign=middle;align=center;" vertex="1" parent="1">
          <mxGeometry x="-1070" y="-790" width="190" height="50" as="geometry" />
        </mxCell>
        <mxCell id="YA9r-kYB9n0EnsaO0a9V-356" value="학생" style="html=1;dashed=0;whiteSpace=wrap;" vertex="1" parent="1">
          <mxGeometry x="-858" y="-580" width="100" height="50" as="geometry" />
        </mxCell>
        <mxCell id="YA9r-kYB9n0EnsaO0a9V-357" value="학생 이름" style="shape=ellipse;html=1;dashed=0;whiteSpace=wrap;perimeter=ellipsePerimeter;" vertex="1" parent="1">
          <mxGeometry x="-1012" y="-450" width="100" height="50" as="geometry" />
        </mxCell>
        <mxCell id="YA9r-kYB9n0EnsaO0a9V-358" value="slack id" style="shape=ellipse;html=1;dashed=0;whiteSpace=wrap;perimeter=ellipsePerimeter;" vertex="1" parent="1">
          <mxGeometry x="-908" y="-450" width="100" height="50" as="geometry" />
        </mxCell>
        <mxCell id="YA9r-kYB9n0EnsaO0a9V-359" value="트랙" style="shape=ellipse;html=1;dashed=0;whiteSpace=wrap;perimeter=ellipsePerimeter;" vertex="1" parent="1">
          <mxGeometry x="-798" y="-450" width="100" height="50" as="geometry" />
        </mxCell>
        <mxCell id="YA9r-kYB9n0EnsaO0a9V-360" value="이메일" style="shape=ellipse;html=1;dashed=0;whiteSpace=wrap;perimeter=ellipsePerimeter;" vertex="1" parent="1">
          <mxGeometry x="-688" y="-450" width="100" height="50" as="geometry" />
        </mxCell>
        <mxCell id="YA9r-kYB9n0EnsaO0a9V-361" value="인스턴스" style="html=1;dashed=0;whiteSpace=wrap;" vertex="1" parent="1">
          <mxGeometry x="-258" y="-590" width="100" height="50" as="geometry" />
        </mxCell>
        <mxCell id="YA9r-kYB9n0EnsaO0a9V-362" value="인스턴스 id" style="shape=ellipse;html=1;dashed=0;whiteSpace=wrap;perimeter=ellipsePerimeter;" vertex="1" parent="1">
          <mxGeometry x="-328" y="-480" width="100" height="50" as="geometry" />
        </mxCell>
        <mxCell id="YA9r-kYB9n0EnsaO0a9V-363" value="상태" style="shape=ellipse;html=1;dashed=0;whiteSpace=wrap;perimeter=ellipsePerimeter;" vertex="1" parent="1">
          <mxGeometry x="-188" y="-480" width="100" height="50" as="geometry" />
        </mxCell>
        <mxCell id="YA9r-kYB9n0EnsaO0a9V-364" value="요청" style="shape=rhombus;html=1;dashed=0;whiteSpace=wrap;perimeter=rhombusPerimeter;" vertex="1" parent="1">
          <mxGeometry x="-542" y="-610" width="90" height="75" as="geometry" />
        </mxCell>
        <mxCell id="YA9r-kYB9n0EnsaO0a9V-365" value="인스턴스 id" style="shape=ellipse;html=1;dashed=0;whiteSpace=wrap;perimeter=ellipsePerimeter;" vertex="1" parent="1">
          <mxGeometry x="-708" y="-700" width="100" height="50" as="geometry" />
        </mxCell>
        <mxCell id="YA9r-kYB9n0EnsaO0a9V-366" value="slack id" style="shape=ellipse;html=1;dashed=0;whiteSpace=wrap;perimeter=ellipsePerimeter;" vertex="1" parent="1">
          <mxGeometry x="-598" y="-700" width="100" height="50" as="geometry" />
        </mxCell>
        <mxCell id="YA9r-kYB9n0EnsaO0a9V-367" value="요청 시간" style="shape=ellipse;html=1;dashed=0;whiteSpace=wrap;perimeter=ellipsePerimeter;" vertex="1" parent="1">
          <mxGeometry x="-378" y="-700" width="100" height="50" as="geometry" />
        </mxCell>
        <mxCell id="YA9r-kYB9n0EnsaO0a9V-368" value="요청 타입" style="shape=ellipse;html=1;dashed=0;whiteSpace=wrap;perimeter=ellipsePerimeter;" vertex="1" parent="1">
          <mxGeometry x="-488" y="-700" width="100" height="50" as="geometry" />
        </mxCell>
        <mxCell id="YA9r-kYB9n0EnsaO0a9V-371" value="" style="endArrow=none;html=1;rounded=0;entryX=0.5;entryY=1;entryDx=0;entryDy=0;exitX=0.5;exitY=0;exitDx=0;exitDy=0;" edge="1" parent="1" source="YA9r-kYB9n0EnsaO0a9V-357" target="YA9r-kYB9n0EnsaO0a9V-356">
          <mxGeometry width="50" height="50" relative="1" as="geometry">
            <mxPoint x="-508" y="-360" as="sourcePoint" />
            <mxPoint x="-458" y="-410" as="targetPoint" />
          </mxGeometry>
        </mxCell>
        <mxCell id="YA9r-kYB9n0EnsaO0a9V-372" value="" style="endArrow=none;html=1;rounded=0;entryX=0.5;entryY=1;entryDx=0;entryDy=0;exitX=0.5;exitY=0;exitDx=0;exitDy=0;" edge="1" parent="1" source="YA9r-kYB9n0EnsaO0a9V-358" target="YA9r-kYB9n0EnsaO0a9V-356">
          <mxGeometry width="50" height="50" relative="1" as="geometry">
            <mxPoint x="-952" y="-440" as="sourcePoint" />
            <mxPoint x="-798" y="-520" as="targetPoint" />
          </mxGeometry>
        </mxCell>
        <mxCell id="YA9r-kYB9n0EnsaO0a9V-373" value="" style="endArrow=none;html=1;rounded=0;entryX=0.5;entryY=1;entryDx=0;entryDy=0;exitX=0.5;exitY=0;exitDx=0;exitDy=0;" edge="1" parent="1" source="YA9r-kYB9n0EnsaO0a9V-359" target="YA9r-kYB9n0EnsaO0a9V-356">
          <mxGeometry width="50" height="50" relative="1" as="geometry">
            <mxPoint x="-942" y="-430" as="sourcePoint" />
            <mxPoint x="-788" y="-510" as="targetPoint" />
          </mxGeometry>
        </mxCell>
        <mxCell id="YA9r-kYB9n0EnsaO0a9V-374" value="" style="endArrow=none;html=1;rounded=0;entryX=0.5;entryY=1;entryDx=0;entryDy=0;exitX=0.5;exitY=0;exitDx=0;exitDy=0;" edge="1" parent="1" source="YA9r-kYB9n0EnsaO0a9V-360" target="YA9r-kYB9n0EnsaO0a9V-356">
          <mxGeometry width="50" height="50" relative="1" as="geometry">
            <mxPoint x="-932" y="-420" as="sourcePoint" />
            <mxPoint x="-778" y="-500" as="targetPoint" />
          </mxGeometry>
        </mxCell>
        <mxCell id="YA9r-kYB9n0EnsaO0a9V-376" value="" style="endArrow=none;html=1;rounded=0;entryX=1;entryY=0.5;entryDx=0;entryDy=0;exitX=0;exitY=0.5;exitDx=0;exitDy=0;" edge="1" parent="1" source="YA9r-kYB9n0EnsaO0a9V-364" target="YA9r-kYB9n0EnsaO0a9V-356">
          <mxGeometry width="50" height="50" relative="1" as="geometry">
            <mxPoint x="-628" y="-440" as="sourcePoint" />
            <mxPoint x="-798" y="-520" as="targetPoint" />
          </mxGeometry>
        </mxCell>
        <mxCell id="YA9r-kYB9n0EnsaO0a9V-377" value="" style="endArrow=none;html=1;rounded=0;entryX=1;entryY=0.5;entryDx=0;entryDy=0;exitX=0;exitY=0.5;exitDx=0;exitDy=0;" edge="1" parent="1" source="YA9r-kYB9n0EnsaO0a9V-361" target="YA9r-kYB9n0EnsaO0a9V-364">
          <mxGeometry width="50" height="50" relative="1" as="geometry">
            <mxPoint x="-618" y="-430" as="sourcePoint" />
            <mxPoint x="-788" y="-510" as="targetPoint" />
          </mxGeometry>
        </mxCell>
        <mxCell id="YA9r-kYB9n0EnsaO0a9V-378" value="" style="endArrow=none;html=1;rounded=0;entryX=0.5;entryY=1;entryDx=0;entryDy=0;exitX=0.5;exitY=0;exitDx=0;exitDy=0;" edge="1" parent="1" source="YA9r-kYB9n0EnsaO0a9V-364" target="YA9r-kYB9n0EnsaO0a9V-365">
          <mxGeometry width="50" height="50" relative="1" as="geometry">
            <mxPoint x="-844" y="-440" as="sourcePoint" />
            <mxPoint x="-904" y="-520" as="targetPoint" />
          </mxGeometry>
        </mxCell>
        <mxCell id="YA9r-kYB9n0EnsaO0a9V-379" value="" style="endArrow=none;html=1;rounded=0;entryX=0.5;entryY=1;entryDx=0;entryDy=0;exitX=0.5;exitY=0;exitDx=0;exitDy=0;" edge="1" parent="1" source="YA9r-kYB9n0EnsaO0a9V-364" target="YA9r-kYB9n0EnsaO0a9V-366">
          <mxGeometry width="50" height="50" relative="1" as="geometry">
            <mxPoint x="-834" y="-430" as="sourcePoint" />
            <mxPoint x="-894" y="-510" as="targetPoint" />
          </mxGeometry>
        </mxCell>
        <mxCell id="YA9r-kYB9n0EnsaO0a9V-380" value="" style="endArrow=none;html=1;rounded=0;entryX=0.5;entryY=1;entryDx=0;entryDy=0;exitX=0.5;exitY=0;exitDx=0;exitDy=0;" edge="1" parent="1" source="YA9r-kYB9n0EnsaO0a9V-364" target="YA9r-kYB9n0EnsaO0a9V-368">
          <mxGeometry width="50" height="50" relative="1" as="geometry">
            <mxPoint x="-487" y="-600" as="sourcePoint" />
            <mxPoint x="-538" y="-640" as="targetPoint" />
          </mxGeometry>
        </mxCell>
        <mxCell id="YA9r-kYB9n0EnsaO0a9V-381" value="" style="endArrow=none;html=1;rounded=0;entryX=0.5;entryY=1;entryDx=0;entryDy=0;exitX=0.5;exitY=0;exitDx=0;exitDy=0;" edge="1" parent="1" source="YA9r-kYB9n0EnsaO0a9V-364" target="YA9r-kYB9n0EnsaO0a9V-367">
          <mxGeometry width="50" height="50" relative="1" as="geometry">
            <mxPoint x="-477" y="-590" as="sourcePoint" />
            <mxPoint x="-528" y="-630" as="targetPoint" />
          </mxGeometry>
        </mxCell>
        <mxCell id="YA9r-kYB9n0EnsaO0a9V-382" value="&lt;span style=&quot;color: rgba(0, 0, 0, 0); font-family: monospace; font-size: 0px; text-align: start; background-color: rgb(251, 251, 251);&quot;&gt;%3CmxGraphModel%3E%3Croot%3E%3CmxCell%20id%3D%220%22%2F%3E%3CmxCell%20id%3D%221%22%20parent%3D%220%22%2F%3E%3CmxCell%20id%3D%222%22%20value%3D%22%22%20style%3D%22endArrow%3Dnone%3Bhtml%3D1%3Brounded%3D0%3BentryX%3D0.5%3BentryY%3D1%3BentryDx%3D0%3BentryDy%3D0%3BexitX%3D0.5%3BexitY%3D0%3BexitDx%3D0%3BexitDy%3D0%3B%22%20edge%3D%221%22%20parent%3D%221%22%3E%3CmxGeometry%20width%3D%2250%22%20height%3D%2250%22%20relative%3D%221%22%20as%3D%22geometry%22%3E%3CmxPoint%20x%3D%22527%22%20y%3D%22-510%22%20as%3D%22sourcePoint%22%2F%3E%3CmxPoint%20x%3D%22476%22%20y%3D%22-550%22%20as%3D%22targetPoint%22%2F%3E%3C%2FmxGeometry%3E%3C%2FmxCell%3E%3C%2Froot%3E%3C%2FmxGraphModel%3E&lt;/span&gt;" style="endArrow=none;html=1;rounded=0;entryX=0.5;entryY=1;entryDx=0;entryDy=0;exitX=0.5;exitY=0;exitDx=0;exitDy=0;" edge="1" parent="1" source="YA9r-kYB9n0EnsaO0a9V-362" target="YA9r-kYB9n0EnsaO0a9V-361">
          <mxGeometry width="50" height="50" relative="1" as="geometry">
            <mxPoint x="-541" y="-590" as="sourcePoint" />
            <mxPoint x="-592" y="-630" as="targetPoint" />
          </mxGeometry>
        </mxCell>
        <mxCell id="YA9r-kYB9n0EnsaO0a9V-383" value="&lt;span style=&quot;color: rgba(0, 0, 0, 0); font-family: monospace; font-size: 0px; text-align: start; background-color: rgb(251, 251, 251);&quot;&gt;%3CmxGraphModel%3E%3Croot%3E%3CmxCell%20id%3D%220%22%2F%3E%3CmxCell%20id%3D%221%22%20parent%3D%220%22%2F%3E%3CmxCell%20id%3D%222%22%20value%3D%22%22%20style%3D%22endArrow%3Dnone%3Bhtml%3D1%3Brounded%3D0%3BentryX%3D0.5%3BentryY%3D1%3BentryDx%3D0%3BentryDy%3D0%3BexitX%3D0.5%3BexitY%3D0%3BexitDx%3D0%3BexitDy%3D0%3B%22%20edge%3D%221%22%20parent%3D%221%22%3E%3CmxGeometry%20width%3D%2250%22%20height%3D%2250%22%20relative%3D%221%22%20as%3D%22geometry%22%3E%3CmxPoint%20x%3D%22527%22%20y%3D%22-510%22%20as%3D%22sourcePoint%22%2F%3E%3CmxPoint%20x%3D%22476%22%20y%3D%22-550%22%20as%3D%22targetPoint%22%2F%3E%3C%2FmxGeometry%3E%3C%2FmxCell%3E%3C%2Froot%3E%3C%2FmxGraphModel%3E&lt;/span&gt;" style="endArrow=none;html=1;rounded=0;entryX=0.5;entryY=1;entryDx=0;entryDy=0;exitX=0.5;exitY=0;exitDx=0;exitDy=0;" edge="1" parent="1" source="YA9r-kYB9n0EnsaO0a9V-363" target="YA9r-kYB9n0EnsaO0a9V-361">
          <mxGeometry width="50" height="50" relative="1" as="geometry">
            <mxPoint x="-268" y="-470" as="sourcePoint" />
            <mxPoint x="-198" y="-530" as="targetPoint" />
          </mxGeometry>
        </mxCell>
        <mxCell id="YA9r-kYB9n0EnsaO0a9V-385" value="" style="edgeStyle=entityRelationEdgeStyle;fontSize=12;html=1;endArrow=ERzeroToMany;startArrow=ERmandOne;rounded=0;exitX=1;exitY=0.5;exitDx=0;exitDy=0;entryX=0;entryY=0.5;entryDx=0;entryDy=0;" edge="1" parent="1" source="YA9r-kYB9n0EnsaO0a9V-3" target="YA9r-kYB9n0EnsaO0a9V-130">
          <mxGeometry width="100" height="100" relative="1" as="geometry">
            <mxPoint x="-410" y="-270" as="sourcePoint" />
            <mxPoint x="-310" y="-370" as="targetPoint" />
          </mxGeometry>
        </mxCell>
        <mxCell id="YA9r-kYB9n0EnsaO0a9V-386" value="" style="edgeStyle=entityRelationEdgeStyle;fontSize=12;html=1;endArrow=ERzeroToMany;startArrow=ERmandOne;rounded=0;exitX=0;exitY=0.5;exitDx=0;exitDy=0;entryX=1;entryY=0.5;entryDx=0;entryDy=0;" edge="1" parent="1" source="YA9r-kYB9n0EnsaO0a9V-111" target="YA9r-kYB9n0EnsaO0a9V-133">
          <mxGeometry width="100" height="100" relative="1" as="geometry">
            <mxPoint x="-390" y="-340" as="sourcePoint" />
            <mxPoint x="-290" y="-310" as="targetPoint" />
          </mxGeometry>
        </mxCell>
      </root>
    </mxGraphModel>
  </diagram>
</mxfile>
